<mxfile host="app.diagrams.net" modified="2020-10-25T10:41:14.790Z" agent="5.0 (Windows NT 10.0; Win64; x64) AppleWebKit/537.36 (KHTML, like Gecko) Chrome/86.0.4240.111 Safari/537.36" etag="Xv3GBV0cQSHjGYaXW4Kh" version="13.8.2" type="github">
  <diagram id="C5RBs43oDa-KdzZeNtuy" name="Page-1">
    <mxGraphModel dx="1422" dy="804" grid="1" gridSize="10" guides="0" tooltips="1" connect="1" arrows="1" fold="1" page="1" pageScale="1" pageWidth="827" pageHeight="1169" math="0" shadow="0">
      <root>
        <mxCell id="WIyWlLk6GJQsqaUBKTNV-0" />
        <mxCell id="WIyWlLk6GJQsqaUBKTNV-1" parent="WIyWlLk6GJQsqaUBKTNV-0" />
        <mxCell id="YjSYnt3zApJmm7NLN-Qj-47" value="" style="edgeStyle=none;rounded=0;orthogonalLoop=1;jettySize=auto;html=1;entryX=-0.008;entryY=0.12;entryDx=0;entryDy=0;entryPerimeter=0;exitX=1.003;exitY=0.167;exitDx=0;exitDy=0;exitPerimeter=0;" edge="1" parent="WIyWlLk6GJQsqaUBKTNV-1" source="YjSYnt3zApJmm7NLN-Qj-0" target="YjSYnt3zApJmm7NLN-Qj-44">
          <mxGeometry relative="1" as="geometry">
            <Array as="points">
              <mxPoint x="230" y="107" />
            </Array>
          </mxGeometry>
        </mxCell>
        <object label="usb_read_port" test="" id="YjSYnt3zApJmm7NLN-Qj-0">
          <mxCell style="swimlane;fontStyle=1;align=center;verticalAlign=top;childLayout=stackLayout;horizontal=1;startSize=26;horizontalStack=0;resizeParent=1;resizeParentMax=0;resizeLast=0;collapsible=1;marginBottom=0;" vertex="1" parent="WIyWlLk6GJQsqaUBKTNV-1">
            <mxGeometry x="50" y="90" width="160" height="100" as="geometry">
              <mxRectangle x="50" y="90" width="120" height="26" as="alternateBounds" />
            </mxGeometry>
          </mxCell>
        </object>
        <mxCell id="YjSYnt3zApJmm7NLN-Qj-39" value="它通过 bulk 方式从 USB 总线上获取的 WiFi 报文&lt;br&gt;" style="text;strokeColor=#666666;fillColor=#f5f5f5;align=left;verticalAlign=top;spacingLeft=4;spacingRight=4;overflow=hidden;rotatable=0;points=[[0,0.5],[1,0.5]];portConstraint=eastwest;labelBorderColor=none;fontColor=#333333;html=1;whiteSpace=wrap;" vertex="1" parent="YjSYnt3zApJmm7NLN-Qj-0">
          <mxGeometry y="26" width="160" height="34" as="geometry" />
        </mxCell>
        <mxCell id="YjSYnt3zApJmm7NLN-Qj-38" value="本函数会分配 skb 结构，并将其作为 urb 的 recv buff " style="text;strokeColor=#666666;fillColor=#f5f5f5;align=left;verticalAlign=top;spacingLeft=4;spacingRight=4;overflow=hidden;rotatable=0;points=[[0,0.5],[1,0.5]];portConstraint=eastwest;fontColor=#333333;whiteSpace=wrap;" vertex="1" parent="YjSYnt3zApJmm7NLN-Qj-0">
          <mxGeometry y="60" width="160" height="40" as="geometry" />
        </mxCell>
        <object label="usb_read_port_complete" item="cal" id="YjSYnt3zApJmm7NLN-Qj-44">
          <mxCell style="swimlane;fontStyle=1;align=center;verticalAlign=top;childLayout=stackLayout;horizontal=1;startSize=26;horizontalStack=0;resizeParent=1;resizeParentMax=0;resizeLast=0;collapsible=1;marginBottom=0;" vertex="1" parent="WIyWlLk6GJQsqaUBKTNV-1">
            <mxGeometry x="250" y="90" width="160" height="144" as="geometry">
              <mxRectangle x="250" y="90" width="120" height="26" as="alternateBounds" />
            </mxGeometry>
          </mxCell>
        </object>
        <mxCell id="YjSYnt3zApJmm7NLN-Qj-45" value="&lt;span style=&quot;color: rgb(0 , 0 , 0)&quot;&gt;USB 成功接收的回调接口&lt;/span&gt;" style="text;strokeColor=#666666;fillColor=#f5f5f5;align=left;verticalAlign=top;spacingLeft=4;spacingRight=4;overflow=hidden;rotatable=0;points=[[0,0.5],[1,0.5]];portConstraint=eastwest;labelBorderColor=none;fontColor=#333333;html=1;whiteSpace=wrap;" vertex="1" parent="YjSYnt3zApJmm7NLN-Qj-44">
          <mxGeometry y="26" width="160" height="34" as="geometry" />
        </mxCell>
        <mxCell id="YjSYnt3zApJmm7NLN-Qj-46" value="成功接收到的报文会被挂载 precvpriv-&gt;rx_skb_queue 队列上" style="text;strokeColor=#82b366;fillColor=#d5e8d4;align=left;verticalAlign=top;spacingLeft=4;spacingRight=4;overflow=hidden;rotatable=0;points=[[0,0.5],[1,0.5]];portConstraint=eastwest;whiteSpace=wrap;" vertex="1" parent="YjSYnt3zApJmm7NLN-Qj-44">
          <mxGeometry y="60" width="160" height="50" as="geometry" />
        </mxCell>
        <mxCell id="YjSYnt3zApJmm7NLN-Qj-52" value="&lt;font color=&quot;#000000&quot;&gt;调用 tasklet_schedule 进行异步接收&lt;/font&gt;" style="text;strokeColor=#666666;fillColor=#f5f5f5;align=left;verticalAlign=top;spacingLeft=4;spacingRight=4;overflow=hidden;rotatable=0;points=[[0,0.5],[1,0.5]];portConstraint=eastwest;labelBorderColor=none;fontColor=#333333;html=1;whiteSpace=wrap;" vertex="1" parent="YjSYnt3zApJmm7NLN-Qj-44">
          <mxGeometry y="110" width="160" height="34" as="geometry" />
        </mxCell>
        <object label="usb_recv_tasklet" item="cal" id="YjSYnt3zApJmm7NLN-Qj-53">
          <mxCell style="swimlane;fontStyle=1;align=center;verticalAlign=top;childLayout=stackLayout;horizontal=1;startSize=26;horizontalStack=0;resizeParent=1;resizeParentMax=0;resizeLast=0;collapsible=1;marginBottom=0;" vertex="1" parent="WIyWlLk6GJQsqaUBKTNV-1">
            <mxGeometry x="440" y="90" width="160" height="60" as="geometry">
              <mxRectangle x="250" y="90" width="120" height="26" as="alternateBounds" />
            </mxGeometry>
          </mxCell>
        </object>
        <mxCell id="YjSYnt3zApJmm7NLN-Qj-56" value="&lt;font color=&quot;#000000&quot;&gt;异步 tasklet 线程，进行报文的接收处理&lt;/font&gt;" style="text;strokeColor=#666666;fillColor=#f5f5f5;align=left;verticalAlign=top;spacingLeft=4;spacingRight=4;overflow=hidden;rotatable=0;points=[[0,0.5],[1,0.5]];portConstraint=eastwest;labelBorderColor=none;fontColor=#333333;html=1;whiteSpace=wrap;" vertex="1" parent="YjSYnt3zApJmm7NLN-Qj-53">
          <mxGeometry y="26" width="160" height="34" as="geometry" />
        </mxCell>
        <object label="recvbuf2recvframe" item="cal" id="YjSYnt3zApJmm7NLN-Qj-57">
          <mxCell style="swimlane;fontStyle=1;align=center;verticalAlign=top;childLayout=stackLayout;horizontal=1;startSize=26;horizontalStack=0;resizeParent=1;resizeParentMax=0;resizeLast=0;collapsible=1;marginBottom=0;" vertex="1" parent="WIyWlLk6GJQsqaUBKTNV-1">
            <mxGeometry x="660" y="90" width="160" height="60" as="geometry">
              <mxRectangle x="250" y="90" width="120" height="26" as="alternateBounds" />
            </mxGeometry>
          </mxCell>
        </object>
        <mxCell id="YjSYnt3zApJmm7NLN-Qj-58" value="&lt;font color=&quot;#000000&quot;&gt;整个报文的接收&lt;/font&gt;" style="text;strokeColor=#666666;fillColor=#f5f5f5;align=left;verticalAlign=top;spacingLeft=4;spacingRight=4;overflow=hidden;rotatable=0;points=[[0,0.5],[1,0.5]];portConstraint=eastwest;labelBorderColor=none;fontColor=#333333;html=1;whiteSpace=wrap;" vertex="1" parent="YjSYnt3zApJmm7NLN-Qj-57">
          <mxGeometry y="26" width="160" height="34" as="geometry" />
        </mxCell>
        <mxCell id="YjSYnt3zApJmm7NLN-Qj-60" value="" style="endArrow=classic;html=1;" edge="1" parent="WIyWlLk6GJQsqaUBKTNV-1">
          <mxGeometry width="50" height="50" relative="1" as="geometry">
            <mxPoint x="412" y="105" as="sourcePoint" />
            <mxPoint x="440" y="105" as="targetPoint" />
          </mxGeometry>
        </mxCell>
        <mxCell id="YjSYnt3zApJmm7NLN-Qj-61" value="" style="endArrow=classic;html=1;exitX=1.013;exitY=0.116;exitDx=0;exitDy=0;exitPerimeter=0;entryX=0.007;entryY=0.182;entryDx=0;entryDy=0;entryPerimeter=0;" edge="1" parent="WIyWlLk6GJQsqaUBKTNV-1" target="YjSYnt3zApJmm7NLN-Qj-57">
          <mxGeometry width="50" height="50" relative="1" as="geometry">
            <mxPoint x="599.9999999999999" y="101.70400000000006" as="sourcePoint" />
            <mxPoint x="657.92" y="100" as="targetPoint" />
          </mxGeometry>
        </mxCell>
      </root>
    </mxGraphModel>
  </diagram>
</mxfile>
